<svg width="19" height="19" viewBox="0 0 19 19" fill="none" xmlns="http://www.w3.org/2000/svg">
<path d="M15.7982 4.02717C14.6208 3.48156 13.3772 3.09221 12.099 2.86899C12.0874 2.86683 12.0754 2.86838 12.0647 2.87342C12.054 2.87846 12.0452 2.88674 12.0395 2.89708C11.87 3.20749 11.7161 3.52621 11.5785 3.85204C10.2015 3.64093 8.80034 3.64093 7.42331 3.85204C7.2994 3.55134 7.11683 3.18373 6.95657 2.89708C6.95068 2.88691 6.94184 2.87877 6.93121 2.87376C6.92059 2.86874 6.90869 2.86708 6.89709 2.86899C5.61842 3.09165 4.37447 3.48103 3.19705 4.02717C3.18684 4.0313 3.17817 4.03852 3.17227 4.04782C0.817919 7.59999 0.171919 11.0654 0.48831 14.4871C0.489962 14.5036 0.499049 14.5201 0.512266 14.53C1.88193 15.5547 3.41657 16.3378 5.04996 16.8456C5.06148 16.849 5.0738 16.8488 5.0852 16.845C5.0966 16.8411 5.10652 16.8338 5.11357 16.8241C5.46301 16.3425 5.77444 15.8344 6.04209 15.3C6.04588 15.2927 6.04807 15.2846 6.04852 15.2764C6.04897 15.2682 6.04767 15.26 6.0447 15.2524C6.04173 15.2447 6.03716 15.2378 6.0313 15.232C6.02544 15.2263 6.01841 15.2218 6.0107 15.219C5.52081 15.0299 5.04679 14.802 4.59314 14.5375C4.58479 14.5326 4.57778 14.5257 4.57272 14.5175C4.56766 14.5093 4.56471 14.4999 4.56414 14.4903C4.56357 14.4806 4.56539 14.471 4.56944 14.4622C4.57349 14.4535 4.57964 14.4458 4.58735 14.44C4.68268 14.3678 4.77632 14.2934 4.86822 14.2169C4.87629 14.21 4.88619 14.2055 4.89674 14.2041C4.90729 14.2026 4.91804 14.2042 4.9277 14.2087C7.90161 15.58 11.1217 15.58 14.0609 14.2087C14.0706 14.2042 14.0813 14.2026 14.0919 14.2041C14.1024 14.2055 14.1123 14.21 14.1204 14.2169C14.2113 14.2921 14.3071 14.3681 14.4029 14.44C14.436 14.4648 14.4335 14.5168 14.398 14.5375C13.9453 14.8044 13.4708 15.0324 12.9796 15.219C12.9719 15.2219 12.965 15.2264 12.9592 15.2322C12.9534 15.238 12.9489 15.2449 12.946 15.2525C12.943 15.2601 12.9417 15.2683 12.9421 15.2765C12.9424 15.2846 12.9445 15.2926 12.9482 15.3C13.2208 15.8336 13.5331 16.3416 13.8759 16.8233C13.8829 16.8333 13.8929 16.8409 13.9045 16.8449C13.916 16.8489 13.9286 16.8491 13.9403 16.8456C15.5767 16.3395 17.1141 15.5563 18.4854 14.53C18.492 14.5251 18.4974 14.5189 18.5014 14.5118C18.5053 14.5047 18.5078 14.4968 18.5086 14.4887C18.8877 10.5318 17.8741 7.09525 15.8213 4.04865C15.8164 4.039 15.8082 4.03139 15.7982 4.02717ZM6.48653 12.4037C5.59105 12.4037 4.85335 11.5743 4.85335 10.5549C4.85335 9.53634 5.57618 8.70612 6.48653 8.70612C7.40348 8.70612 8.13375 9.54378 8.1197 10.5549C8.1197 11.5743 7.39605 12.4037 6.48653 12.4037ZM12.5252 12.4037C11.6297 12.4037 10.892 11.5743 10.892 10.5549C10.892 9.53634 11.6157 8.70612 12.5252 8.70612C13.4422 8.70612 14.1724 9.54378 14.1584 10.5549C14.1584 11.5743 13.4422 12.4037 12.5252 12.4037Z" fill="url(#paint0_linear_20_141)"/>
<defs>
<linearGradient id="paint0_linear_20_141" x1="9.50009" y1="15.5841" x2="9.50009" y2="2.86817" gradientUnits="userSpaceOnUse">
<stop stop-color="#696969"/>
<stop offset="1" stop-color="white"/>
</linearGradient>
</defs>
</svg>
