<svg width="23" height="23" viewBox="0 0 23 23" fill="none" xmlns="http://www.w3.org/2000/svg">
<path d="M17.3596 11.5C17.3596 14.0112 17.3449 16.5234 17.3596 19.0356C17.3701 19.5354 17.2021 20.0225 16.8839 20.4135C16.5658 20.8045 16.1174 21.0743 15.6166 21.1767C15.4622 21.2081 15.3047 21.2259 15.1472 21.229L8.01247 21.2311C7.51128 21.2363 7.0231 21.0723 6.62752 20.7659C6.23587 20.4631 5.96167 20.0345 5.85157 19.5531C5.82248 19.4086 5.8091 19.2614 5.81167 19.114L5.80957 3.89223C5.81377 3.3695 6.01432 2.86455 6.37552 2.47668C6.73889 2.08738 7.23247 1.84352 7.76362 1.79087C7.89172 1.77727 8.02087 1.76996 8.15002 1.76996H15.0716C15.5457 1.76025 16.0112 1.89604 16.4051 2.15887C16.7044 2.34705 16.9501 2.60632 17.117 2.91264C17.284 3.22 17.3669 3.56291 17.3585 3.91V11.5H17.3596ZM16.4849 11.4728V5.44055C16.4849 5.16559 16.3694 5.05059 16.0859 5.05059H7.08742C6.79972 5.05059 6.68947 5.16141 6.68947 5.44055V17.4884C6.68947 17.7748 6.80392 17.8773 7.08847 17.8773H16.0849C16.3652 17.8773 16.4839 17.7612 16.4839 17.4884L16.4849 11.4728ZM11.5846 20.5181C11.782 20.5181 11.9731 20.4616 12.1379 20.354C12.3008 20.248 12.4283 20.0963 12.5044 19.918C12.58 19.7402 12.5998 19.5438 12.5612 19.3546C12.5226 19.1654 12.4274 18.9922 12.2881 18.8579C12.1473 18.7218 11.9698 18.6294 11.7772 18.5919C11.5847 18.5544 11.3853 18.5735 11.2034 18.6467C11.0226 18.7196 10.8674 18.844 10.7572 19.0043C10.6292 19.1909 10.5713 19.4164 10.5938 19.6413C10.6163 19.8661 10.7176 20.0759 10.88 20.2337C11.0669 20.4156 11.321 20.5181 11.5846 20.5181ZM11.5846 3.39355H13.106C13.1451 3.3974 13.1845 3.38987 13.2193 3.37187C13.2542 3.35386 13.283 3.32617 13.3024 3.29214C13.3146 3.26946 13.3221 3.24457 13.3244 3.21896C13.3244 3.16773 13.3034 3.11859 13.2667 3.082C13.2291 3.04528 13.1786 3.02464 13.126 3.0245H10.103C10.0571 3.01866 10.0106 3.02706 9.96967 3.04855C9.92032 3.09037 9.85837 3.151 9.85837 3.20537C9.85837 3.26077 9.92032 3.32246 9.96757 3.36323C10.0096 3.38368 10.0568 3.39097 10.103 3.38414L11.5846 3.3925V3.39355Z" fill="url(#paint0_linear_20_137)"/>
<defs>
<linearGradient id="paint0_linear_20_137" x1="11.5846" y1="26.5012" x2="11.5846" y2="1.76891" gradientUnits="userSpaceOnUse">
<stop stop-color="#696969"/>
<stop offset="1" stop-color="white"/>
</linearGradient>
</defs>
</svg>
