<svg width="42" height="42" viewBox="0 0 42 42" fill="none" xmlns="http://www.w3.org/2000/svg">
<path d="M38.5884 14.2585L34.3459 16.5903L30.1035 20.6178V34.4387H36.0429C37.4489 34.4387 38.5884 33.2999 38.5884 31.895V14.2585Z" fill="#4CAF50"/>
<path d="M2.9519 14.2585L6.01833 15.7085L11.4368 20.6178V34.4387H5.49736C4.09142 34.4387 2.9519 33.2999 2.9519 31.895V14.2585Z" fill="#1E88E5"/>
<path d="M30.1035 10.0188L20.7702 17.014L11.4369 10.0188L10.5884 14.9366L11.4369 20.6176L20.7702 27.6128L30.1035 20.6176L30.952 14.9366L30.1035 10.0188Z" fill="#E53935"/>
<path d="M2.9519 10.9495V14.258L11.4368 20.6173V10.0185L8.78609 8.03353C8.15482 7.5604 7.38779 7.30518 6.59869 7.30518C4.58439 7.30518 2.9519 8.93654 2.9519 10.9495Z" fill="#C62828"/>
<path d="M38.5884 10.9495V14.258L30.1035 20.6173V10.0185L32.7542 8.03353C33.3855 7.5604 34.1525 7.30518 34.9416 7.30518C36.9559 7.30518 38.5884 8.93654 38.5884 10.9495Z" fill="#FBC02D"/>
</svg>
