<svg width="42" height="42" viewBox="0 0 42 42" fill="none" xmlns="http://www.w3.org/2000/svg">
<path d="M29.7178 4.1731H11.7978C7.3064 4.1731 3.65234 7.82476 3.65234 12.3132V30.2215C3.65234 34.71 7.3064 38.3616 11.7978 38.3616H29.7178C34.2092 38.3616 37.8633 34.71 37.8633 30.2215V12.3132C37.8633 7.82476 34.2092 4.1731 29.7178 4.1731ZM20.7578 30.1604C19.8309 30.1604 18.934 30.0563 18.0706 29.8772C16.5393 30.8906 14.5086 31.5947 12.6124 31.9309C13.5662 31.0005 14.5567 29.9594 15.0674 28.8531C11.6561 27.1698 9.35417 24.0293 9.35417 20.4224C9.35417 15.045 14.4597 10.6852 20.7578 10.6852C27.0559 10.6852 32.1615 15.045 32.1615 20.4224C32.1615 25.7998 27.0559 30.1604 20.7578 30.1604Z" fill="url(#paint0_linear_28_849)"/>
<defs>
<linearGradient id="paint0_linear_28_849" x1="8.53962" y1="4.1731" x2="20.7436" y2="38.3667" gradientUnits="userSpaceOnUse">
<stop stop-color="#80FF00"/>
<stop offset="1" stop-color="#34DF3B"/>
</linearGradient>
</defs>
</svg>
