<svg width="42" height="41" viewBox="0 0 42 41" fill="none" xmlns="http://www.w3.org/2000/svg">
<g clip-path="url(#clip0_28_862)">
<path d="M40.5373 20.1742L32.5378 15.0681L40.5373 9.96211C40.8823 9.74192 41.0911 9.36108 41.0911 8.95194C41.0911 8.5428 40.8823 8.16204 40.5373 7.94177L30.9552 1.82551C30.5616 1.57408 30.0576 1.57416 29.664 1.82551L20.7274 7.52969L11.7909 1.82551C11.3972 1.57416 10.8933 1.57416 10.4997 1.82551L0.917644 7.94177C0.572576 8.16204 0.36377 8.54288 0.36377 8.95194C0.36377 9.361 0.572576 9.74192 0.917644 9.96211L8.91712 15.0681L0.917644 20.1742C0.572576 20.3944 0.36377 20.7752 0.36377 21.1843C0.36377 21.5935 0.572576 21.9743 0.917644 22.1945L10.4997 28.3107C10.6966 28.4364 10.9209 28.4992 11.1453 28.4992C11.3697 28.4992 11.5942 28.4363 11.791 28.3108L20.7274 22.6067L29.6638 28.3107C29.8607 28.4363 30.0851 28.4991 30.3095 28.4991C30.5339 28.4991 30.7583 28.4363 30.9552 28.3106L40.5372 22.1944C40.8822 21.9742 41.0911 21.5934 41.0911 21.1842C41.0911 20.7751 40.8822 20.3944 40.5373 20.1742ZM20.7274 19.7621L13.3736 15.0681L20.7274 10.3744L28.0812 15.0682L20.7274 19.7621Z" fill="#5582FF"/>
<path d="M30.9553 30.8403L21.3731 24.7242C20.9794 24.4728 20.4755 24.4728 20.0819 24.7242L10.4997 30.8403C10.1547 31.0606 9.9458 31.4415 9.9458 31.8506C9.9458 32.2597 10.1546 32.6406 10.4997 32.8608L20.0818 38.977C20.2787 39.1026 20.5031 39.1654 20.7275 39.1654C20.9519 39.1654 21.1763 39.1026 21.3731 38.977L30.9553 32.8608C31.3002 32.6406 31.5091 32.2597 31.5091 31.8506C31.5091 31.4415 31.3002 31.0606 30.9553 30.8403Z" fill="#5582FF"/>
<path d="M41.0909 8.95211C41.0909 8.54297 40.8821 8.16221 40.5371 7.94194L30.9552 1.82575C30.5615 1.57432 30.0575 1.5744 29.6639 1.82575L20.7273 7.52986L20.7271 7.5297V10.3746L20.7273 10.3744L28.0811 15.0683L20.7273 19.7622L20.7271 19.762V22.6069L20.7273 22.6067L29.6637 28.3108C29.8606 28.4364 30.085 28.4992 30.3094 28.4992C30.5338 28.4992 30.7582 28.4364 30.9551 28.3107L40.5371 22.1945C40.8821 21.9743 41.0909 21.5935 41.0909 21.1843C41.0909 20.7752 40.8821 20.3944 40.5371 20.1742L32.5376 15.0681L40.5371 9.96212C40.8821 9.74209 41.0909 9.36125 41.0909 8.95211Z" fill="#2864F0"/>
<path d="M30.9551 30.8405L21.3729 24.7243C21.1761 24.5987 20.9519 24.5359 20.7275 24.5359V39.1655C20.9519 39.1655 21.1762 39.1027 21.3729 38.9772L30.955 32.8609C31.3 32.6407 31.5089 32.2599 31.5089 31.8507C31.5089 31.4416 31.3 31.0607 30.9551 30.8405Z" fill="#2864F0"/>
</g>
<defs>
<clipPath id="clip0_28_862">
<rect width="40.7273" height="40.7006" fill="white" transform="translate(0.36377 0.0512695)"/>
</clipPath>
</defs>
</svg>
