<svg width="42" height="41" viewBox="0 0 42 41" fill="none" xmlns="http://www.w3.org/2000/svg">
<path d="M34.6719 0.146484H7.40164C3.68557 0.146484 0.673096 3.15698 0.673096 6.87062V34.123C0.673096 37.8366 3.68557 40.8471 7.40164 40.8471H34.6719C38.3879 40.8471 41.4004 37.8366 41.4004 34.123V6.87062C41.4004 3.15698 38.3879 0.146484 34.6719 0.146484Z" fill="url(#paint0_linear_28_822)"/>
<path fill-rule="evenodd" clip-rule="evenodd" d="M34.9217 20.1396C34.9217 27.6045 28.8187 33.6573 21.2901 33.6573C18.9864 33.6612 16.7192 33.0823 14.6998 31.9745L7.15161 34.3717L9.61181 27.1161C8.33039 25.0146 7.65399 22.6005 7.65705 20.1396C7.65426 12.6734 13.7601 6.62061 21.2901 6.62061C28.8201 6.62061 34.9217 12.6734 34.9217 20.1396ZM21.2901 8.77355C14.9678 8.77355 9.82683 13.872 9.82683 20.1396C9.82593 22.5367 10.591 24.8714 12.0106 26.8036L10.5864 31.0229L14.9902 29.6276C16.8636 30.8563 19.0562 31.5092 21.297 31.5057C27.6151 31.5057 32.7575 26.4087 32.7575 20.1424C32.7575 13.8761 27.6151 8.77634 21.297 8.77634L21.2901 8.77355ZM28.1792 23.2525C28.094 23.113 27.872 23.0321 27.5383 22.866C27.2046 22.7 25.5612 21.8977 25.254 21.7875C24.9469 21.6773 24.7248 21.6228 24.5028 21.9535C24.2808 22.2842 23.64 23.0321 23.4445 23.2525C23.249 23.473 23.0549 23.5009 22.7212 23.3349C22.3875 23.1688 21.3082 22.8186 20.0334 21.6912C19.3025 21.0236 18.674 20.2521 18.168 19.4015C17.974 19.0694 18.1485 18.8908 18.3077 18.7248C18.4668 18.5588 18.6414 18.3383 18.8089 18.1458C18.9468 17.977 19.0592 17.789 19.1426 17.5876C19.1872 17.4963 19.208 17.3953 19.2031 17.2938C19.1982 17.1924 19.1678 17.0938 19.1147 17.0072C19.0323 16.8425 18.3635 15.2114 18.0843 14.5473C17.805 13.8831 17.5258 13.9096 17.3317 13.9096C17.1445 13.9181 16.958 13.9377 16.7732 13.9682C16.7732 13.9682 16.103 14.0506 15.7958 14.3868C15.4886 14.7231 14.6271 15.5198 14.6271 17.1495C14.6271 18.7792 15.8237 20.3587 15.9899 20.575C16.156 20.7912 18.3021 24.2516 21.6992 25.5785C25.0963 26.9054 25.0963 26.4631 25.7092 26.4059C26.3222 26.3487 27.6863 25.605 27.9656 24.832C28.2448 24.059 28.2448 23.3935 28.161 23.2567L28.1792 23.2525Z" fill="white"/>
<defs>
<linearGradient id="paint0_linear_28_822" x1="21.036" y1="0.146484" x2="21.036" y2="40.8471" gradientUnits="userSpaceOnUse">
<stop stop-color="#4AC14B"/>
<stop offset="1" stop-color="#06853A"/>
</linearGradient>
</defs>
</svg>
