<svg width="20" height="20" viewBox="0 0 20 20" fill="none" xmlns="http://www.w3.org/2000/svg">
<path d="M16.0862 4.44731C14.9453 3.92553 13.7337 3.54526 12.4691 3.33301C12.3099 3.60717 12.133 3.9786 12.0092 4.27044C10.6641 4.07587 9.32867 4.07587 8.00212 4.27044C7.87831 3.9786 7.69258 3.60717 7.54223 3.33301C6.26876 3.54526 5.05717 3.92553 3.92429 4.44731C1.63377 7.8256 1.01472 11.1243 1.32425 14.3788C2.84536 15.4843 4.31343 16.1563 5.75584 16.5986C6.10959 16.121 6.42797 15.608 6.70212 15.0686C6.18034 14.874 5.68509 14.6353 5.20753 14.3523C5.33135 14.2638 5.45517 14.1666 5.57013 14.0693C8.45317 15.387 11.5759 15.387 14.4235 14.0693C14.5473 14.1666 14.6623 14.2638 14.7862 14.3523C14.3086 14.6353 13.8133 14.874 13.2916 15.0686C13.5657 15.608 13.8841 16.121 14.2378 16.5986C15.6793 16.1563 17.1562 15.4843 18.6694 14.3788C19.0497 10.6114 18.0672 7.33923 16.0862 4.44731ZM7.10008 12.3713C6.23339 12.3713 5.52589 11.5842 5.52589 10.6203C5.52589 9.65626 6.2157 8.86917 7.10008 8.86917C7.97559 8.86917 8.69192 9.65626 8.67425 10.6203C8.67425 11.5842 7.97559 12.3713 7.10008 12.3713ZM12.9113 12.3713C12.0446 12.3713 11.3362 11.5842 11.3362 10.6203C11.3362 9.65626 12.0269 8.86917 12.9113 8.86917C13.7868 8.86917 14.5032 9.65626 14.4854 10.6203C14.4854 11.5842 13.7957 12.3713 12.9113 12.3713Z" fill="white"/>
</svg>
