<svg width="122" height="36" viewBox="0 0 122 36" fill="none" xmlns="http://www.w3.org/2000/svg">
<g clip-path="url(#clip0_532_461)">
<path d="M29.7745 25.7357L21.7043 0L39.5489 32.9958L23.1579 29.5911L18.1454 28.5396L23.1579 27.338L27.2181 26.3366L29.7745 25.7357ZM29.7745 18.4256L32.6316 26.1363L33.1329 27.4381L31.7795 27.7886L29.0226 28.3894L35.5389 30.0417L32.5313 24.2837L31.4787 22.331L29.7745 18.4256Z" fill="url(#paint0_linear_532_461)"/>
<path d="M14.2356 27.9387L40.1003 35.9999L2.7569 31.8942L15.0376 20.3282L18.8972 16.7231L16.9424 21.7301L15.4887 25.5855L14.2356 27.9387ZM20.3509 31.9944L12.4311 30.0416L11.0777 29.6411L11.579 28.4394L12.5313 25.7857L7.5188 30.3921L13.985 31.2433H16.1905L20.3509 31.9944Z" fill="url(#paint1_linear_532_461)"/>
<path d="M19.1479 14.2196L0 33.0958L21.1028 2.15283L25.6642 18.1751L27.0175 23.182L23.609 19.1264L20.8521 15.972L19.1479 14.2196ZM12.782 17.6744L19.2982 10.4644L21.9549 13.7189L20.0501 7.20986L16.391 12.5172L15.0376 14.2196L12.782 17.6744Z" fill="url(#paint2_linear_532_461)"/>
</g>
<path d="M63.92 30L62.512 24.624H56.4L55.024 30H50.16L56.208 7.664H62.992L69.04 30H63.92ZM59.6 12.304H59.344L57.168 20.752H61.776L59.6 12.304ZM78.2115 11.376C77.1448 11.376 76.3982 11.1627 75.9715 10.736C75.5662 10.288 75.3635 9.75467 75.3635 9.136V8.208C75.3635 7.568 75.5662 7.03467 75.9715 6.608C76.3982 6.18133 77.1448 5.968 78.2115 5.968C79.2782 5.968 80.0142 6.18133 80.4195 6.608C80.8462 7.03467 81.0595 7.568 81.0595 8.208V9.136C81.0595 9.75467 80.8462 10.288 80.4195 10.736C80.0142 11.1627 79.2782 11.376 78.2115 11.376ZM70.5955 26.32H75.8435V17.168H70.5955V13.488H80.5795V26.32H85.4435V30H70.5955V26.32ZM95.447 30.384C94.1457 30.384 92.9723 30.192 91.927 29.808C90.903 29.4027 90.0283 28.8267 89.303 28.08C88.599 27.3333 88.055 26.4267 87.671 25.36C87.287 24.2933 87.095 23.088 87.095 21.744C87.095 20.4 87.287 19.1947 87.671 18.128C88.055 17.0613 88.599 16.1547 89.303 15.408C90.0283 14.6613 90.903 14.096 91.927 13.712C92.9723 13.3067 94.135 13.104 95.415 13.104C97.2283 13.104 98.679 13.4773 99.767 14.224C100.876 14.9493 101.719 15.92 102.295 17.136L98.647 19.12C98.3483 18.48 97.9537 17.9467 97.463 17.52C96.9937 17.0933 96.311 16.88 95.415 16.88C94.327 16.88 93.4843 17.2 92.887 17.84C92.311 18.4587 92.023 19.312 92.023 20.4V23.088C92.023 24.176 92.311 25.04 92.887 25.68C93.4843 26.2987 94.3483 26.608 95.479 26.608C96.3963 26.608 97.111 26.3947 97.623 25.968C98.1563 25.5413 98.6043 24.9867 98.967 24.304L102.551 26.352C101.954 27.568 101.079 28.5493 99.927 29.296C98.7963 30.0213 97.303 30.384 95.447 30.384ZM112.363 30.384C111.083 30.384 109.931 30.192 108.907 29.808C107.883 29.4027 107.008 28.8267 106.283 28.08C105.579 27.3333 105.035 26.4267 104.651 25.36C104.267 24.2933 104.075 23.088 104.075 21.744C104.075 20.4 104.267 19.1947 104.651 18.128C105.035 17.0613 105.579 16.1547 106.283 15.408C107.008 14.6613 107.883 14.096 108.907 13.712C109.931 13.3067 111.083 13.104 112.363 13.104C113.643 13.104 114.795 13.3067 115.819 13.712C116.843 14.096 117.707 14.6613 118.411 15.408C119.136 16.1547 119.691 17.0613 120.075 18.128C120.459 19.1947 120.651 20.4 120.651 21.744C120.651 23.088 120.459 24.2933 120.075 25.36C119.691 26.4267 119.136 27.3333 118.411 28.08C117.707 28.8267 116.843 29.4027 115.819 29.808C114.795 30.192 113.643 30.384 112.363 30.384ZM112.363 26.864C113.429 26.864 114.261 26.5333 114.859 25.872C115.456 25.2107 115.755 24.272 115.755 23.056V20.432C115.755 19.216 115.456 18.2773 114.859 17.616C114.261 16.9547 113.429 16.624 112.363 16.624C111.296 16.624 110.464 16.9547 109.867 17.616C109.269 18.2773 108.971 19.216 108.971 20.432V23.056C108.971 24.272 109.269 25.2107 109.867 25.872C110.464 26.5333 111.296 26.864 112.363 26.864Z" fill="#1B0928"/>
<defs>
<linearGradient id="paint0_linear_532_461" x1="18.1454" y1="0" x2="48.2747" y2="19.5441" gradientUnits="userSpaceOnUse">
<stop stop-color="#7F26C6"/>
<stop offset="1" stop-color="#F50386"/>
</linearGradient>
<linearGradient id="paint1_linear_532_461" x1="2.7569" y1="16.7231" x2="18.4711" y2="47.165" gradientUnits="userSpaceOnUse">
<stop stop-color="#7F26C6"/>
<stop offset="1" stop-color="#F50386"/>
</linearGradient>
<linearGradient id="paint2_linear_532_461" x1="0" y1="2.15283" x2="30.6604" y2="28.9237" gradientUnits="userSpaceOnUse">
<stop stop-color="#7F26C6"/>
<stop offset="1" stop-color="#F50386"/>
</linearGradient>
<clipPath id="clip0_532_461">
<rect width="40" height="36" fill="white"/>
</clipPath>
</defs>
</svg>
