<svg width="57" height="65" viewBox="0 0 57 65" fill="none" xmlns="http://www.w3.org/2000/svg">
<g clip-path="url(#clip0_19_573)">
<path d="M56.3414 42.8782C56.3414 44.9315 54.9577 47.5448 53.2655 48.6853L31.7067 63.2078C30.0145 64.3465 27.2471 64.3465 25.5549 63.2078L3.99611 48.6853C2.30392 47.5448 0.920242 44.9333 0.920242 42.8782V22.3487C0.920242 20.2954 2.30392 17.6821 3.99611 16.5416L25.5549 2.01903C27.2471 0.880375 30.0145 0.880375 31.7067 2.01903L53.2655 16.5416C54.9577 17.6821 56.3414 20.2935 56.3414 22.3487V42.8782Z" fill="#56A4CA"/>
<path d="M7.56153 43.4273C7.73518 43.67 8.01413 43.8137 8.30971 43.8137H48.9519C49.2475 43.8137 49.5264 43.67 49.7001 43.4273C49.8737 43.1865 49.9217 42.8748 49.8294 42.5892L38.1133 6.33512L35.6286 4.6626L47.679 41.9471H9.58255L21.6311 4.6626L19.1482 6.33512L7.43221 42.5911C7.33984 42.8748 7.38787 43.1865 7.56153 43.4273Z" fill="white"/>
<path d="M28.6308 50.3474C28.4184 50.3474 7.38605 50.2933 7.38605 45.6808C7.38605 41.0683 28.4184 41.0142 28.6308 41.0142C28.8433 41.0142 49.8756 41.0683 49.8756 45.6808C49.8756 50.2933 28.8433 50.3474 28.6308 50.3474Z" fill="#56A4CA"/>
<path d="M28.6308 41.947C39.2477 41.947 48.9519 43.6176 48.9519 45.6803C48.9519 47.7429 39.2477 49.4136 28.6308 49.4136C18.014 49.4136 8.30973 47.7429 8.30973 45.6803C8.30973 43.6176 18.014 41.947 28.6308 41.947ZM28.6308 40.0803C23.4305 40.0803 6.46236 40.4835 6.46236 45.6803C6.46236 50.877 23.4305 51.2802 28.6308 51.2802C33.8312 51.2802 50.7993 50.877 50.7993 45.6803C50.7993 40.4835 33.8312 40.0803 28.6308 40.0803ZM18.4703 20.4805H38.7913V46.6136H18.4703V20.4805Z" fill="white"/>
<path d="M37.8677 21.4135V45.68H19.3939V21.4135H37.8677ZM39.715 19.5469H17.5466V47.5466H39.715V19.5469ZM21.2413 23.2802H36.0203V28.8801H21.2413V23.2802Z" fill="#56A4CA"/>
<path d="M21.2413 31.6807H34.1729M21.2413 35.414H36.0203M21.2413 39.1473H30.4782" stroke="#56A4CA" stroke-width="0.893889" stroke-miterlimit="10"/>
<path d="M28.6308 3.0312C29.4233 3.0312 30.1715 3.22907 30.6814 3.57253L52.2402 18.0951C53.4207 18.8903 54.494 20.9174 54.494 22.3492V42.8786C54.494 44.3103 53.4207 46.3375 52.2421 47.1327L30.6832 61.6552C30.1734 61.9987 29.4252 62.1966 28.6327 62.1966C27.8401 62.1966 27.0919 61.9987 26.5821 61.6552L5.02325 47.1327C3.84094 46.3375 2.76761 44.3103 2.76761 42.8786V22.3492C2.76761 20.9174 3.84094 18.8903 5.01956 18.0951L26.5784 3.57253C27.0901 3.22907 27.8383 3.0312 28.6308 3.0312ZM28.6308 1.16455C27.5168 1.16455 26.401 1.45015 25.5549 2.01948L3.99611 16.542C2.30392 17.6825 0.920242 20.294 0.920242 22.3492V42.8786C0.920242 44.9319 2.30392 47.5452 3.99611 48.6857L25.5549 63.2083C26.401 63.7776 27.515 64.0632 28.6308 64.0632C29.7466 64.0632 30.8606 63.7776 31.7067 63.2083L53.2655 48.6857C54.9577 47.5452 56.3414 44.9338 56.3414 42.8786V22.3492C56.3414 20.2959 54.9577 17.6825 53.2655 16.542L31.7067 2.01948C30.8606 1.45015 29.7448 1.16455 28.6308 1.16455Z" fill="#56A4CA"/>
</g>
<defs>
<clipPath id="clip0_19_573">
<rect width="55.4211" height="63.4661" fill="white" transform="translate(0.920242 0.880859)"/>
</clipPath>
</defs>
</svg>
