<svg width="57" height="65" viewBox="0 0 57 65" fill="none" xmlns="http://www.w3.org/2000/svg">
<g clip-path="url(#clip0_19_593)">
<path d="M56.4255 42.6018C56.4255 44.6551 55.0195 47.2684 53.3 48.4089L31.3934 62.9315C29.674 64.0701 26.862 64.0701 25.1425 62.9315L3.23593 48.4089C1.51644 47.2684 0.110443 44.657 0.110443 42.6018V22.0724C0.110443 20.019 1.51644 17.4057 3.23593 16.2652L25.1425 1.74266C26.862 0.604008 29.674 0.604008 31.3934 1.74266L53.3 16.2652C55.0195 17.4057 56.4255 20.0172 56.4255 22.0724V42.6018Z" fill="#56A4CA"/>
<path d="M6.85887 43.1505C7.03532 43.3931 7.31877 43.5369 7.61912 43.5369H48.9168C49.2171 43.5369 49.5006 43.3931 49.6771 43.1505C49.8535 42.9097 49.9023 42.5979 49.8085 42.3124L37.9035 6.05826L35.3787 4.38574L47.6234 41.6702H8.91249L21.1554 4.38574L18.6325 6.05826L6.72746 42.3142C6.63361 42.5979 6.68241 42.9097 6.85887 43.1505Z" fill="white"/>
<path d="M28.2679 50.0706C28.0521 50.0706 6.68053 50.0164 6.68053 45.4039C6.68053 40.7914 28.0521 40.7373 28.2679 40.7373C28.4838 40.7373 49.8554 40.7914 49.8554 45.4039C49.8554 50.0164 28.4838 50.0706 28.2679 50.0706Z" fill="#56A4CA"/>
<path d="M28.2679 41.6704C39.056 41.6704 48.9168 43.341 48.9168 45.4037C48.9168 47.4663 39.056 49.137 28.2679 49.137C17.4799 49.137 7.61911 47.4663 7.61911 45.4037C7.61911 43.341 17.4799 41.6704 28.2679 41.6704ZM28.2679 39.8037C22.9837 39.8037 5.74194 40.2069 5.74194 45.4037C5.74194 50.6004 22.9837 51.0036 28.2679 51.0036C33.5522 51.0036 50.794 50.6004 50.794 45.4037C50.794 40.2069 33.5522 39.8037 28.2679 39.8037Z" fill="white"/>
<path d="M28.268 26.737C31.3781 26.737 33.8995 24.2298 33.8995 21.1371C33.8995 18.0443 31.3781 15.5371 28.268 15.5371C25.1578 15.5371 22.6365 18.0443 22.6365 21.1371C22.6365 24.2298 25.1578 26.737 28.268 26.737Z" fill="white"/>
<path d="M22.6365 46.337C22.1184 46.337 21.6979 45.9188 21.6979 45.4036V36.0704C21.6979 32.4678 24.645 29.5371 28.268 29.5371C31.8909 29.5371 34.838 32.4678 34.838 36.0704V45.4036C34.838 45.9188 34.4176 46.337 33.8995 46.337H22.6365Z" fill="white"/>
<path d="M28.268 30.4707C31.3784 30.4707 33.8995 32.9776 33.8995 36.0706V45.4039H22.6365V36.0706C22.6365 32.9776 25.1575 30.4707 28.268 30.4707ZM28.268 28.604C24.1269 28.604 20.7593 31.9528 20.7593 36.0706V45.4039C20.7593 46.4343 21.6003 47.2705 22.6365 47.2705H33.8995C34.9357 47.2705 35.7766 46.4343 35.7766 45.4039V36.0706C35.7766 31.9528 32.409 28.604 28.268 28.604Z" fill="#56A4CA"/>
<path d="M28.268 2.75435C29.0733 2.75435 29.8335 2.95221 30.3516 3.29568L52.2581 17.8182C53.4577 18.6134 54.5483 20.6406 54.5483 22.0723V42.6017C54.5483 44.0335 53.4577 46.0606 52.26 46.8558L30.3535 61.3784C29.8354 61.7218 29.0751 61.9197 28.2698 61.9197C27.4645 61.9197 26.7043 61.7218 26.1862 61.3784L4.27963 46.8558C3.07824 46.0606 1.98761 44.0335 1.98761 42.6017V22.0723C1.98761 20.6406 3.07824 18.6134 4.27588 17.8182L26.1824 3.29568C26.7024 2.95221 27.4626 2.75435 28.268 2.75435ZM28.268 0.887695C27.136 0.887695 26.0022 1.17329 25.1425 1.74262L3.23593 16.2652C1.51644 17.4057 0.110443 20.0171 0.110443 22.0723V42.6017C0.110443 44.6551 1.51644 47.2684 3.23593 48.4089L25.1425 62.9314C26.0022 63.5008 27.1341 63.7864 28.268 63.7864C29.4018 63.7864 30.5337 63.5008 31.3934 62.9314L53.3 48.4089C55.0195 47.2684 56.4255 44.6569 56.4255 42.6017V22.0723C56.4255 20.019 55.0195 17.4057 53.3 16.2652L31.3934 1.74262C30.5337 1.17329 29.3999 0.887695 28.268 0.887695Z" fill="#56A4CA"/>
</g>
<defs>
<clipPath id="clip0_19_593">
<rect width="56.315" height="63.4661" fill="white" transform="translate(0.110443 0.604004)"/>
</clipPath>
</defs>
</svg>
