<svg width="57" height="57" viewBox="0 0 57 57" fill="none" xmlns="http://www.w3.org/2000/svg">
<g clip-path="url(#clip0_28_1498)">
<path d="M24.9375 8.90625H27.6094V12.4688C27.6094 12.705 27.7032 12.9315 27.8702 13.0985C28.0373 13.2655 28.2638 13.3594 28.5 13.3594C28.7362 13.3594 28.9627 13.2655 29.1298 13.0985C29.2968 12.9315 29.3906 12.705 29.3906 12.4688V8.90625H32.0625C32.2987 8.90625 32.5252 8.81242 32.6923 8.64539C32.8593 8.47837 32.9531 8.25183 32.9531 8.01562V0.890625C32.9531 0.654417 32.8593 0.427883 32.6923 0.260858C32.5252 0.0938335 32.2987 0 32.0625 0L24.9375 0C24.7013 0 24.4748 0.0938335 24.3077 0.260858C24.1407 0.427883 24.0469 0.654417 24.0469 0.890625V8.01562C24.0469 8.25183 24.1407 8.47837 24.3077 8.64539C24.4748 8.81242 24.7013 8.90625 24.9375 8.90625Z" fill="#FFE380"/>
<path d="M32.0625 48.0938H29.3906V44.5312C29.3906 44.295 29.2968 44.0685 29.1298 43.9015C28.9627 43.7345 28.7362 43.6406 28.5 43.6406C28.2638 43.6406 28.0373 43.7345 27.8702 43.9015C27.7032 44.0685 27.6094 44.295 27.6094 44.5312V48.0938H24.9375C24.7013 48.0938 24.4748 48.1876 24.3077 48.3546C24.1407 48.5216 24.0469 48.7482 24.0469 48.9844V56.1094C24.0469 56.3456 24.1407 56.5721 24.3077 56.7391C24.4748 56.9062 24.7013 57 24.9375 57H32.0625C32.2987 57 32.5252 56.9062 32.6923 56.7391C32.8593 56.5721 32.9531 56.3456 32.9531 56.1094V48.9844C32.9531 48.7482 32.8593 48.5216 32.6923 48.3546C32.5252 48.1876 32.2987 48.0938 32.0625 48.0938Z" fill="#FFE380"/>
<path d="M56.1094 0H45.4219C45.1857 0 44.9591 0.0938335 44.7921 0.260858C44.6251 0.427883 44.5313 0.654417 44.5313 0.890625V11.2094L38.5578 17.1828C38.4728 17.265 38.4049 17.3633 38.3582 17.4719C38.3116 17.5806 38.287 17.6974 38.286 17.8157C38.2849 17.934 38.3075 18.0512 38.3523 18.1607C38.397 18.2701 38.4632 18.3696 38.5468 18.4532C38.6304 18.5368 38.7299 18.603 38.8393 18.6477C38.9488 18.6925 39.066 18.7151 39.1843 18.714C39.3026 18.713 39.4194 18.6884 39.5281 18.6418C39.6367 18.5951 39.735 18.5272 39.8172 18.4422L45.7906 12.4688H56.1094C56.3456 12.4688 56.5721 12.3749 56.7391 12.2079C56.9062 12.0409 57 11.8143 57 11.5781V0.890625C57 0.654417 56.9062 0.427883 56.7391 0.260858C56.5721 0.0938335 56.3456 0 56.1094 0Z" fill="#FFE380"/>
<path d="M56.1094 24.0469H48.9844C48.7482 24.0469 48.5216 24.1407 48.3546 24.3077C48.1876 24.4748 48.0938 24.7013 48.0938 24.9375V27.6094H42.75C42.5138 27.6094 42.2873 27.7032 42.1202 27.8702C41.9532 28.0373 41.8594 28.2638 41.8594 28.5C41.8594 28.7362 41.9532 28.9627 42.1202 29.1298C42.2873 29.2968 42.5138 29.3906 42.75 29.3906H48.0938V32.0625C48.0938 32.2987 48.1876 32.5252 48.3546 32.6923C48.5216 32.8593 48.7482 32.9531 48.9844 32.9531H56.1094C56.3456 32.9531 56.5721 32.8593 56.7391 32.6923C56.9062 32.5252 57 32.2987 57 32.0625V24.9375C57 24.7013 56.9062 24.4748 56.7391 24.3077C56.5721 24.1407 56.3456 24.0469 56.1094 24.0469Z" fill="#FFE380"/>
<path d="M0.890625 32.9531H8.01562C8.25183 32.9531 8.47837 32.8593 8.64539 32.6923C8.81242 32.5252 8.90625 32.2987 8.90625 32.0625V29.3906H14.25C14.4862 29.3906 14.7127 29.2968 14.8798 29.1298C15.0468 28.9627 15.1406 28.7362 15.1406 28.5C15.1406 28.2638 15.0468 28.0373 14.8798 27.8702C14.7127 27.7032 14.4862 27.6094 14.25 27.6094H8.90625V24.9375C8.90625 24.7013 8.81242 24.4748 8.64539 24.3077C8.47837 24.1407 8.25183 24.0469 8.01562 24.0469H0.890625C0.654417 24.0469 0.427883 24.1407 0.260858 24.3077C0.0938335 24.4748 0 24.7013 0 24.9375L0 32.0625C0 32.2987 0.0938335 32.5252 0.260858 32.6923C0.427883 32.8593 0.654417 32.9531 0.890625 32.9531Z" fill="#FFE380"/>
<path d="M16.9219 35.1133C16.9223 35.2692 16.9637 35.4222 17.0419 35.5571C17.12 35.692 17.2322 35.804 17.3672 35.8819L27.6094 41.8589V29.0107L16.9219 22.7764V35.1133Z" fill="#FFE380"/>
<path d="M28.0547 15.2619L17.8125 21.2344L28.5 27.4688L39.1875 21.2344L28.9453 15.2619C28.8099 15.1837 28.6563 15.1426 28.5 15.1426C28.3437 15.1426 28.1901 15.1837 28.0547 15.2619Z" fill="#FFE380"/>
<path d="M39.6328 35.882C39.7678 35.8041 39.88 35.6921 39.9581 35.5572C40.0363 35.4223 40.0777 35.2693 40.0781 35.1134V22.7773L29.3906 29.0117V41.859L39.6328 35.882Z" fill="#FFE380"/>
<path d="M0.890625 12.4687H11.2094L17.1828 18.4422C17.3508 18.6044 17.5758 18.6942 17.8093 18.6921C18.0428 18.6901 18.2662 18.5965 18.4313 18.4313C18.5965 18.2662 18.6901 18.0428 18.6921 17.8093C18.6942 17.5758 18.6044 17.3508 18.4422 17.1828L12.4687 11.2094V0.890625C12.4687 0.654417 12.3749 0.427883 12.2079 0.260858C12.0409 0.0938334 11.8143 0 11.5781 0L0.890625 0C0.654417 0 0.427883 0.0938334 0.260858 0.260858C0.0938334 0.427883 0 0.654417 0 0.890625L0 11.5781C0 11.8143 0.0938334 12.0409 0.260858 12.2079C0.427883 12.3749 0.654417 12.4687 0.890625 12.4687Z" fill="#FFE380"/>
<path d="M56.1094 44.531H45.7906L39.8172 38.5576C39.6492 38.3954 39.4242 38.3056 39.1907 38.3077C38.9572 38.3097 38.7338 38.4033 38.5687 38.5685C38.4035 38.7336 38.3099 38.957 38.3078 39.1905C38.3058 39.424 38.3956 39.649 38.5578 39.817L44.5312 45.7904V56.1092C44.5312 56.3454 44.6251 56.5719 44.7921 56.7389C44.9591 56.906 45.1857 56.9998 45.4219 56.9998H56.1094C56.3456 56.9998 56.5721 56.906 56.7391 56.7389C56.9062 56.5719 57 56.3454 57 56.1092V45.4217C57 45.1855 56.9062 44.9589 56.7391 44.7919C56.5721 44.6249 56.3456 44.531 56.1094 44.531Z" fill="#FFE380"/>
<path d="M17.1828 38.5576L11.2094 44.531H0.890625C0.654417 44.531 0.427883 44.6249 0.260858 44.7919C0.0938334 44.9589 0 45.1855 0 45.4217L0 56.1092C0 56.3454 0.0938334 56.5719 0.260858 56.7389C0.427883 56.906 0.654417 56.9998 0.890625 56.9998H11.5781C11.8143 56.9998 12.0409 56.906 12.2079 56.7389C12.3749 56.5719 12.4687 56.3454 12.4687 56.1092V45.7904L18.4422 39.817C18.6044 39.649 18.6942 39.424 18.6921 39.1905C18.6901 38.957 18.5965 38.7336 18.4313 38.5685C18.2662 38.4033 18.0428 38.3097 17.8093 38.3077C17.5758 38.3056 17.3508 38.3954 17.1828 38.5576Z" fill="#FFE380"/>
</g>
<defs>
<clipPath id="clip0_28_1498">
<rect width="57" height="57" fill="white"/>
</clipPath>
</defs>
</svg>
