<svg width="57" height="57" viewBox="0 0 57 57" fill="none" xmlns="http://www.w3.org/2000/svg">
<g clip-path="url(#clip0_28_1515)">
<path d="M51.8058 2.33398C50.791 2.33398 49.9671 3.15679 49.9671 4.17266C49.9671 5.18737 50.791 6.01133 51.8058 6.01133C52.6423 6.01133 53.3227 6.69164 53.3227 7.52709V49.4695C53.3227 50.305 52.6423 50.9851 51.8058 50.9851C50.791 50.9851 49.9671 51.8091 49.9671 52.8238C49.9671 53.8397 50.791 54.6625 51.8058 54.6625C54.6695 54.6625 57 52.3331 57 49.4695V7.52709C57 4.66335 54.6695 2.33398 51.8058 2.33398ZM43.2847 2.33398C42.2699 2.33398 41.446 3.15679 41.446 4.17266C41.446 5.18737 42.2699 6.01133 43.2847 6.01133C44.1213 6.01133 44.8016 6.69164 44.8016 7.52709V49.4695C44.8016 50.305 44.1213 50.9851 43.2847 50.9851C42.2699 50.9851 41.446 51.8091 41.446 52.8238C41.446 53.8397 42.2699 54.6625 43.2847 54.6625C46.1495 54.6625 48.4789 52.3331 48.4789 49.4695V7.52709C48.4789 4.66335 46.1495 2.33398 43.2847 2.33398ZM39.9578 7.52709V49.4695C39.9578 52.3332 37.6284 54.6625 34.7636 54.6625H17.5559C16.5389 54.6625 15.7161 53.8374 15.7172 52.8205C15.7218 51.1795 15.7149 47.9101 15.7149 41.2529C15.7149 39.9808 14.683 38.95 13.412 38.95C6.75482 38.95 3.48543 38.943 1.84327 38.9476C0.826254 38.9488 0.00114938 38.126 0.00114938 37.1089V7.52709C0.00114938 4.65876 2.32592 2.33398 5.19425 2.33398H34.7636C37.6284 2.33398 39.9578 4.66335 39.9578 7.52709ZM13.9544 42.5492V52.8239C13.9544 54.4299 12.0134 55.2955 10.8148 54.1248C-0.283845 43.0248 0.182144 43.6667 0.0356245 42.9031C-0.188923 41.7799 0.675138 40.7105 1.83982 40.7105H12.1157C13.1304 40.7105 13.9544 41.5333 13.9544 42.5492Z" fill="#FFE380"/>
</g>
<defs>
<clipPath id="clip0_28_1515">
<rect width="57" height="57" fill="white"/>
</clipPath>
</defs>
</svg>
