<svg width="67" height="76" viewBox="0 0 67 76" fill="none" xmlns="http://www.w3.org/2000/svg">
<g clip-path="url(#clip0_19_519)">
<path d="M66.5173 50.545C66.5173 52.9743 64.8636 56.0661 62.824 57.3911L37.0815 74.5617C35.042 75.8867 31.7346 75.8867 29.7501 74.5617L4.06274 57.3911C2.02318 56.0661 0.369488 52.9743 0.369488 50.545V26.2522C0.369488 23.823 2.02318 20.7311 4.06274 19.4061L29.7501 2.18032C31.7897 0.855259 35.0971 0.855259 37.1366 2.18032L62.8792 19.3509C64.9187 20.6759 66.5724 23.7677 66.5724 26.197V50.545H66.5173Z" fill="#72BF40"/>
<path d="M24.6237 30.6688H42.2631V33.9814H24.6237V30.6688ZM22.4188 36.1899H44.468V39.5025H22.4188V36.1899ZM19.6626 41.7109H47.2242V45.0236H19.6626V41.7109ZM33.4434 17.9703C44.6885 17.9703 53.839 27.1353 53.839 38.3983C53.839 49.6613 44.6885 58.8263 33.4434 58.8263C22.1983 58.8263 13.0478 49.6613 13.0478 38.3983C13.0478 27.1353 22.1983 17.9703 33.4434 17.9703ZM33.4434 16.314C21.2612 16.314 11.3941 26.1967 11.3941 38.3983C11.3941 50.5999 21.2612 60.4826 33.4434 60.4826C45.6256 60.4826 55.4926 50.5999 55.4926 38.3983C55.4926 26.1967 45.6256 16.314 33.4434 16.314Z" fill="white"/>
<path opacity="0.08" d="M62.824 19.4061L37.1366 2.18032C36.1444 1.51779 34.8215 1.18652 33.4434 1.18652V75.6107C34.7663 75.6107 36.0893 75.2794 37.1366 74.6169L62.8792 57.4463C64.9187 56.1213 66.5724 53.0295 66.5724 50.6002V26.2522C66.5173 23.823 64.8636 20.7311 62.824 19.4061Z" fill="black"/>
<path d="M33.4434 3.39496C34.3805 3.39496 35.2625 3.6158 35.8688 4.05749L61.6113 21.228C63.0445 22.1666 64.3124 24.5407 64.3124 26.2522V50.545C64.3124 52.2565 63.0445 54.6306 61.6113 55.5692L35.8688 72.7397C35.2625 73.1262 34.3805 73.4023 33.4434 73.4023C32.5063 73.4023 31.6243 73.1814 31.018 72.7397L5.27545 55.5692C3.84225 54.6306 2.57441 52.2565 2.57441 50.545V26.2522C2.57441 24.5407 3.84225 22.1666 5.27545 21.228L31.018 4.05749C31.6243 3.6158 32.5063 3.39496 33.4434 3.39496ZM33.4434 1.18652C32.1204 1.18652 30.7975 1.51779 29.7501 2.18032L4.06274 19.4061C2.02318 20.7311 0.369488 23.823 0.369488 26.2522V50.545C0.369488 52.9743 2.02318 56.0661 4.06274 57.3911L29.8053 74.5617C30.7975 75.2242 32.1204 75.5555 33.4985 75.5555C34.8766 75.5555 36.1444 75.2242 37.1918 74.5617L62.9343 57.3911C64.9738 56.0661 66.6275 52.9743 66.6275 50.545V26.2522C66.6275 23.823 64.9738 20.7311 62.9343 19.4061L37.1366 2.18032C36.0893 1.51779 34.7663 1.18652 33.4434 1.18652Z" fill="#72BF40"/>
</g>
<defs>
<clipPath id="clip0_19_519">
<rect width="66.1478" height="75.0867" fill="white" transform="translate(0.369488 0.85498)"/>
</clipPath>
</defs>
</svg>
