<svg width="46" height="52" viewBox="0 0 46 52" fill="none" xmlns="http://www.w3.org/2000/svg">
<g clip-path="url(#clip0_16_315)">
<path d="M46 34.4118C46 36.0942 44.85 38.2354 43.4317 39.153L25.53 51.0442C24.1117 51.9618 21.8117 51.9618 20.4317 51.0442L2.56833 39.153C1.15 38.2354 0 36.0942 0 34.4118V17.5883C0 15.906 1.15 13.7648 2.56833 12.8471L20.4317 0.917728C21.85 8.04067e-05 24.15 8.04067e-05 25.5683 0.917728L43.47 12.8089C44.8883 13.7266 46.0383 15.8677 46.0383 17.5501V34.4118H46Z" fill="#72BF40"/>
<path d="M16.8667 20.647H29.1333V22.9411H16.8667V20.647ZM15.3333 24.4705H30.6667V26.7646H15.3333V24.4705ZM13.4167 28.294H32.5833V30.5882H13.4167V28.294ZM23 11.8529C30.82 11.8529 37.1833 18.1999 37.1833 25.9999C37.1833 33.7999 30.82 40.147 23 40.147C15.18 40.147 8.81667 33.7999 8.81667 25.9999C8.81667 18.1999 15.18 11.8529 23 11.8529ZM23 10.7058C14.5283 10.7058 7.66667 17.5499 7.66667 25.9999C7.66667 34.4499 14.5283 41.294 23 41.294C31.4717 41.294 38.3333 34.4499 38.3333 25.9999C38.3333 17.5499 31.4717 10.7058 23 10.7058Z" fill="white"/>
<path opacity="0.08" d="M43.4317 12.8471L25.5683 0.917728C24.8783 0.458904 23.9583 0.229492 23 0.229492V51.7707C23.92 51.7707 24.84 51.5413 25.5683 51.0824L43.47 39.1913C44.8883 38.2736 46.0383 36.1324 46.0383 34.4501V17.5883C46 15.906 44.85 13.7648 43.4317 12.8471Z" fill="black"/>
<path d="M23 1.7589C23.6517 1.7589 24.265 1.91185 24.6867 2.21773L42.5883 14.1089C43.585 14.7589 44.4667 16.403 44.4667 17.5883V34.4118C44.4667 35.5971 43.585 37.2413 42.5883 37.8913L24.6867 49.7824C24.265 50.0501 23.6517 50.2413 23 50.2413C22.3483 50.2413 21.735 50.0883 21.3133 49.7824L3.41167 37.8913C2.415 37.2413 1.53333 35.5971 1.53333 34.4118V17.5883C1.53333 16.403 2.415 14.7589 3.41167 14.1089L21.3133 2.21773C21.735 1.91185 22.3483 1.7589 23 1.7589ZM23 0.229492C22.08 0.229492 21.16 0.458904 20.4317 0.917728L2.56833 12.8471C1.15 13.7648 0 15.906 0 17.5883V34.4118C0 36.0942 1.15 38.2354 2.56833 39.153L20.47 51.0442C21.16 51.503 22.08 51.7324 23.0383 51.7324C23.9967 51.7324 24.8783 51.503 25.6067 51.0442L43.5083 39.153C44.9267 38.2354 46.0767 36.0942 46.0767 34.4118V17.5883C46.0767 15.906 44.9267 13.7648 43.5083 12.8471L25.5683 0.917728C24.84 0.458904 23.92 0.229492 23 0.229492Z" fill="#72BF40"/>
</g>
<defs>
<clipPath id="clip0_16_315">
<rect width="46" height="52" fill="white"/>
</clipPath>
</defs>
</svg>
