<svg width="59" height="65" viewBox="0 0 59 65" fill="none" xmlns="http://www.w3.org/2000/svg">
<g clip-path="url(#clip0_19_543)">
<path d="M53.6628 48.5546L31.7337 63.1145C30.0468 64.2345 27.2354 64.2345 25.5485 63.1145L3.80684 48.5546C1.93256 47.4346 0.62056 44.8213 0.62056 42.768V22.2348C0.62056 20.1815 1.93256 17.5682 3.80684 16.4482L25.736 1.88833C27.4228 0.768342 30.2342 0.768342 31.9211 1.88833L53.8502 16.4482C55.5371 17.5682 57.0365 20.1815 57.0365 22.2348V42.768C57.0365 44.8213 55.5371 47.4346 53.6628 48.5546Z" fill="#56A4CA"/>
<path d="M31.5462 28.9548H38.1062L19.3634 51.168L25.9234 36.0481H19.3634L38.1062 13.835L31.5462 28.9548Z" fill="white"/>
</g>
<defs>
<clipPath id="clip0_19_543">
<rect width="58.1028" height="63.4661" fill="white" transform="translate(0.62056 0.768555)"/>
</clipPath>
</defs>
</svg>
