<svg width="57" height="57" viewBox="0 0 57 57" fill="none" xmlns="http://www.w3.org/2000/svg">
<g clip-path="url(#clip0_28_1531)">
<path d="M4.15625 57H33.8438C36.1356 57 38 55.1356 38 52.8438V25.5312C38 23.2394 36.1356 21.375 33.8438 21.375H4.15625C1.86438 21.375 0 23.2394 0 25.5312V52.8438C0 55.1356 1.86438 57 4.15625 57Z" fill="#FFE380"/>
<path d="M52.8438 0H4.15625C1.86438 0 0 1.86438 0 4.15625V10.0938C0 12.3856 1.86438 14.25 4.15625 14.25H52.8438C55.1356 14.25 57 12.3856 57 10.0938V4.15625C57 1.86438 55.1356 0 52.8438 0Z" fill="#FFE380"/>
<path d="M49.875 35.625C53.81 35.625 57 32.435 57 28.5C57 24.565 53.81 21.375 49.875 21.375C45.94 21.375 42.75 24.565 42.75 28.5C42.75 32.435 45.94 35.625 49.875 35.625Z" fill="#FFE380"/>
<path d="M49.875 57C53.81 57 57 53.81 57 49.875C57 45.94 53.81 42.75 49.875 42.75C45.94 42.75 42.75 45.94 42.75 49.875C42.75 53.81 45.94 57 49.875 57Z" fill="#FFE380"/>
</g>
<defs>
<clipPath id="clip0_28_1531">
<rect width="57" height="57" fill="white"/>
</clipPath>
</defs>
</svg>
