<svg width="56" height="64" viewBox="0 0 56 64" fill="none" xmlns="http://www.w3.org/2000/svg">
<g clip-path="url(#clip0_19_553)">
<path d="M55.4207 41.6712C55.4207 43.7245 54.1275 46.3378 52.2801 47.4578L30.6659 62.0177C29.0032 63.1377 26.2322 63.1377 24.5696 62.0177L3.14005 47.6444C1.47742 46.5245 -0.000480652 43.9111 -0.000480652 41.8578V21.3247C-0.000480652 19.2714 1.29268 16.658 3.14005 15.5381L24.7543 0.978176C26.4169 -0.141814 29.188 -0.141814 30.8506 0.978176L52.4649 15.5381C54.1275 16.658 55.6054 19.2714 55.6054 21.3247V41.6712H55.4207Z" fill="#8360A8"/>
<path d="M27.7101 51.0044C26.4169 51.0044 25.3085 50.8177 24.3848 50.4444C23.6459 50.071 22.9069 49.511 22.168 48.5777L21.6138 48.391L17.1801 50.4444H16.9953C16.6259 50.4444 16.2564 50.2577 16.0716 49.8844C15.8869 49.511 15.7022 48.951 15.8869 48.5777L20.5053 35.5112V30.6579C20.5053 20.9513 25.1238 11.8047 28.0796 11.8047C31.0353 11.8047 35.6538 20.9513 35.6538 30.6579V35.5112L40.2722 48.5777C40.4569 48.951 40.2722 49.511 40.0875 49.8844C39.9027 50.2577 39.5333 50.4444 39.1638 50.4444H38.7943L34.3606 48.5777L33.2522 48.7644C32.698 49.6977 31.959 50.4444 31.0353 50.631C30.1117 50.8177 29.0032 51.0044 27.7101 51.0044Z" fill="white"/>
<path d="M27.7101 12.7382C29.5574 12.7382 34.3606 20.7648 34.3606 30.6581C34.3606 31.9647 34.3606 33.8314 34.1759 35.698L38.7943 48.9513C38.7943 49.1379 38.7943 49.5113 38.6096 49.5113L33.9911 47.4579L32.8827 47.8313C32.3285 48.7646 31.7743 49.3246 31.0353 49.5113C30.2964 49.8846 29.188 49.8846 28.0796 49.8846C26.9711 49.8846 25.8627 49.6979 25.1238 49.5113C24.3848 49.3246 23.8306 48.5779 23.2764 47.8313L22.168 47.2713L17.5495 49.3246C16.6259 49.5112 16.6259 49.1379 16.6259 48.9513L21.2443 35.698V30.6581C21.0595 20.7648 25.8627 12.7382 27.7101 12.7382ZM27.7101 10.8716C23.4611 10.8716 19.2122 22.2582 19.2122 30.6581V35.3247L14.7785 48.2046C14.5937 49.1379 14.7785 49.8846 15.148 50.4446C15.5174 51.0046 16.2564 51.3779 16.8106 51.3779H17.1801L17.5495 51.1912L21.6138 49.5113C22.3527 50.4446 23.0917 51.1912 24.0153 51.5646C24.939 51.9379 26.2322 52.1246 27.5253 52.1246C28.8185 52.1246 30.1117 51.9379 31.0353 51.5646C31.959 51.1912 32.698 50.6312 33.4369 49.6979L37.5011 51.3779L37.8706 51.5646H38.2401C38.979 51.5646 39.5333 51.1912 39.9027 50.6312C40.2722 50.0712 40.4569 49.1379 40.2722 48.5779L35.8385 35.698V31.0314C36.208 22.2582 31.959 10.8716 27.7101 10.8716Z" fill="#8360A8"/>
<path d="M27.7101 32.3382C29.2405 32.3382 30.4811 31.0846 30.4811 29.5383C30.4811 27.9919 29.2405 26.7383 27.7101 26.7383C26.1797 26.7383 24.939 27.9919 24.939 29.5383C24.939 31.0846 26.1797 32.3382 27.7101 32.3382Z" fill="#8360A8"/>
<path d="M30.4811 63.511V54.7378C30.4811 53.2444 29.188 51.9378 27.7101 51.9378C26.2322 51.9378 24.939 53.2444 24.939 54.7378V63.511H30.4811ZM48.5854 61.271C47.1075 61.271 46.1838 60.5244 45.6296 58.8444L44.3364 54.3644L43.0433 58.8444C42.489 60.3377 41.5654 61.271 40.0875 61.271C38.6096 61.271 37.6859 60.5244 37.1317 58.8444L34.1759 49.3245C33.9911 48.9511 33.9911 48.5778 33.9911 48.3911C33.9911 46.8978 35.0996 45.7778 36.5775 45.7778C37.3164 45.7778 38.6096 46.1512 39.1638 48.0178L40.2722 52.3111L41.3806 48.5778C41.9348 46.7112 42.8585 45.7778 44.3364 45.7778C45.8143 45.7778 46.738 46.7112 47.2922 48.5778L48.4006 52.3111L49.5091 47.8311C49.8785 46.5245 50.8022 45.7778 51.9106 45.7778C53.3885 45.7778 54.3122 46.8978 54.3122 48.2045C54.3122 48.5778 54.3122 48.7645 54.1275 49.1378L51.1717 58.6577C50.9869 60.5244 49.8785 61.271 48.5854 61.271Z" fill="white"/>
<path d="M52.0954 46.8979C52.8343 46.8979 53.5733 47.4579 53.5733 48.3912C53.5733 48.5779 53.5733 48.7645 53.3885 49.1379L50.4327 58.6578C49.8785 60.1511 48.9549 60.3378 48.4006 60.3378C47.8464 60.3378 46.9227 60.1511 46.3685 58.6578L44.3364 51.3779L42.1196 58.6578C41.7501 60.1511 40.8264 60.3378 40.0875 60.3378C39.3485 60.3378 38.6096 60.1511 38.0554 58.6578L35.0996 49.1379C35.0996 48.7645 34.9148 48.5779 34.9148 48.3912C34.9148 47.4579 35.6538 46.7112 36.5775 46.7112C37.1317 46.7112 37.8706 46.8979 38.2401 48.2046L40.2722 55.6712L42.3043 48.7646C42.8585 46.8979 43.7822 46.7112 44.3364 46.7112C44.8906 46.7112 45.8143 46.8979 46.3685 48.7646L48.4006 55.6712L50.4327 48.2046C50.8022 47.0846 51.5412 46.8979 52.0954 46.8979ZM52.0954 45.0312C50.4327 45.0312 49.1396 46.1512 48.7701 47.8312L48.4006 48.9512L48.2159 48.3912C47.477 45.5912 45.6296 45.0312 44.3364 45.0312C43.0433 45.0312 41.1959 45.5912 40.4569 48.3912L40.2722 48.9512L40.0875 48.0179C39.5333 46.1512 38.4248 45.0312 36.5775 45.0312C34.7301 45.0312 33.0675 46.5246 33.0675 48.5779C33.0675 48.9512 33.0675 49.3245 33.2522 49.8845L36.208 59.4045C36.7622 61.4578 38.2401 62.3911 40.0875 62.3911C41.9348 62.3911 43.228 61.2711 43.7822 59.2178L44.3364 57.7245L44.8906 59.2178C45.4448 61.2711 46.738 62.2044 48.5854 62.2044C50.4327 62.2044 51.7259 61.0844 52.2801 59.2178L55.2359 49.6979C55.4206 49.1379 55.4206 48.7645 55.4206 48.3912C55.4206 46.5246 53.9428 45.0312 52.0954 45.0312Z" fill="#8360A8"/>
</g>
<defs>
<clipPath id="clip0_19_553">
<rect width="55.4211" height="63.4661" fill="white" transform="translate(-0.000480652 0.0449219)"/>
</clipPath>
</defs>
</svg>
