<svg width="23" height="23" viewBox="0 0 23 23" fill="none" xmlns="http://www.w3.org/2000/svg">
<path d="M11.967 1.76785C10.7944 1.76868 9.67007 2.2558 8.84066 3.12232C8.01126 3.98883 7.54456 5.16396 7.54297 6.38981C7.54297 8.89053 9.41497 10.9145 11.856 11.0024C11.924 10.9926 11.993 10.9926 12.061 11.0024H12.126C13.2706 10.9627 14.3557 10.4593 15.1518 9.59857C15.9479 8.73781 16.3926 7.58714 16.392 6.38981C16.3901 5.16396 15.9232 3.98894 15.0936 3.12262C14.264 2.25631 13.1395 1.76945 11.967 1.7689V1.76785Z" fill="url(#paint0_linear_20_51)"/>
<path d="M16.6999 13.593C14.1009 11.7823 9.86291 11.7823 7.24491 13.593C6.06191 14.4189 5.40991 15.5386 5.40991 16.7356C5.40991 17.9327 6.06191 19.0419 7.23591 19.8595C8.53991 20.7732 10.2539 21.2311 11.9679 21.2311C13.6819 21.2311 15.3959 20.7732 16.6999 19.8584C17.8739 19.0325 18.5259 17.9222 18.5259 16.7158C18.5159 15.5187 17.8739 14.4105 16.6999 13.593Z" fill="url(#paint1_linear_20_51)"/>
<defs>
<linearGradient id="paint0_linear_20_51" x1="11.967" y1="10.1681" x2="11.967" y2="1.76785" gradientUnits="userSpaceOnUse">
<stop stop-color="#696969"/>
<stop offset="1" stop-color="white"/>
</linearGradient>
<linearGradient id="paint1_linear_20_51" x1="11.9679" y1="20.4177" x2="11.9679" y2="12.235" gradientUnits="userSpaceOnUse">
<stop stop-color="#696969"/>
<stop offset="1" stop-color="white"/>
</linearGradient>
</defs>
</svg>
