<svg width="42" height="42" viewBox="0 0 42 42" fill="none" xmlns="http://www.w3.org/2000/svg">
<path d="M15.0734 38.4434C15.6526 38.1943 16.0582 37.6188 16.0582 36.9488V32.5532C16.0582 32.3928 16.0713 32.2259 16.0916 32.0566C16.0802 32.0599 16.0696 32.0623 16.0582 32.0648C16.0582 32.0648 13.6146 32.0648 13.1259 32.0648C11.904 32.0648 10.8451 31.5763 10.3564 30.5995C9.78622 29.5413 9.54185 27.7505 8.07567 26.7737C7.8313 26.6109 7.99421 26.3667 8.48294 26.3667C8.97167 26.4481 10.0306 27.0993 10.6822 27.9947C11.4153 28.8901 12.1484 29.6227 13.4517 29.6227C15.4774 29.6227 16.5632 29.521 17.2165 29.1709C17.9773 28.0403 19.0305 27.1807 20.1309 27.1807V27.1603C15.5141 27.0122 12.5646 25.4786 11.1913 23.1106C8.206 23.1448 5.60678 23.4403 4.12349 23.6861C4.07625 23.4199 4.03552 23.1521 4.0005 22.8827C5.46423 22.6417 7.94534 22.356 10.7979 22.3015C10.7067 22.0768 10.6276 21.8465 10.5608 21.6104C7.70098 21.4655 5.2329 21.5786 3.89216 21.6893C3.87587 21.4191 3.85388 21.1497 3.85062 20.8761C5.1938 20.7663 7.59509 20.6564 10.3816 20.7858C10.3173 20.3788 10.2758 19.9628 10.2758 19.5298C10.2758 18.146 10.7645 16.6807 11.6605 15.4597C11.2532 14.0759 10.683 11.1454 11.8234 10.0872C14.0227 10.0872 15.5703 11.1454 16.3034 11.7967C17.6873 11.226 19.2349 10.9004 20.9455 10.9004C22.656 10.9004 24.2037 11.226 25.507 11.7958C26.24 11.1446 27.7877 10.0864 29.987 10.0864C31.2088 11.226 30.5571 14.1565 30.1499 15.4589C31.0459 16.6799 31.5346 18.0637 31.4531 19.529C31.4531 19.9229 31.4165 20.3031 31.3635 20.6759C34.2136 20.5359 36.6801 20.6482 38.0461 20.7589C38.0444 21.0333 38.0192 21.3011 38.0045 21.5721C36.6434 21.4598 34.1151 21.3442 31.1957 21.4997C31.1232 21.7732 31.0353 22.0394 30.931 22.2974C33.8194 22.3349 36.36 22.6141 37.8938 22.8583C37.8587 23.1285 37.818 23.3963 37.7708 23.6617C36.2133 23.4126 33.5587 23.1212 30.5384 23.1065C29.1822 25.4493 26.2865 26.9772 21.76 27.1554V27.1807C23.8779 27.1807 25.8328 30.3553 25.8328 32.5532V36.9488C25.8328 37.6188 26.2384 38.1943 26.8176 38.4434C34.2796 35.9753 39.6801 28.9422 39.6801 20.6686C39.6801 10.3453 31.2764 1.94629 20.9455 1.94629C10.6146 1.94629 2.21094 10.3453 2.21094 20.6686C2.21094 28.9422 7.61138 35.9753 15.0734 38.4434Z" fill="black"/>
</svg>
