<svg width="42" height="34" viewBox="0 0 42 34" fill="none" xmlns="http://www.w3.org/2000/svg">
<g clip-path="url(#clip0_28_902)">
<path d="M41.2725 4.86598C39.8106 5.51523 38.2381 5.94843 36.5795 6.15339C38.2658 5.14961 39.563 3.54865 40.1719 1.65742C38.594 2.58476 36.8458 3.26613 34.9861 3.6251C33.501 2.0463 31.3827 1.06689 29.0357 1.06689C24.5273 1.06689 20.873 4.69868 20.873 9.17693C20.873 9.81067 20.947 10.4278 21.0863 11.0272C14.3037 10.6859 8.28811 7.45299 4.26368 2.54709C3.55648 3.74587 3.15867 5.14961 3.15867 6.63091C3.15867 9.44616 4.59629 11.9246 6.78861 13.3848C5.45045 13.3438 4.19075 12.9705 3.08795 12.3722C3.08795 12.3966 3.08795 12.4331 3.08795 12.4675C3.08795 16.4017 5.9024 19.6779 9.63289 20.4235C8.95111 20.6108 8.23064 20.7149 7.48808 20.7149C6.96099 20.7149 6.44717 20.6551 5.94992 20.5653C6.98862 23.7805 10.002 26.1304 13.5722 26.2002C10.7788 28.3718 7.26045 29.6725 3.43493 29.6725C2.77413 29.6725 2.12771 29.6348 1.48901 29.5573C5.10348 31.8518 9.39532 33.1968 14.0021 33.1968C29.0136 33.1968 37.226 20.8368 37.226 10.1142C37.226 9.76303 37.2149 9.41292 37.1983 9.06725C38.8006 7.93273 40.1818 6.50128 41.2725 4.86598Z" fill="#03A9F4"/>
</g>
<defs>
<clipPath id="clip0_28_902">
<rect width="40.7273" height="33.2379" fill="white" transform="translate(0.54541 0.592041)"/>
</clipPath>
</defs>
</svg>
