<svg width="42" height="41" viewBox="0 0 42 41" fill="none" xmlns="http://www.w3.org/2000/svg">
<g clip-path="url(#clip0_28_852)">
<path fill-rule="evenodd" clip-rule="evenodd" d="M7.39197 0.146484H34.5363C38.269 0.146484 41.3274 3.20213 41.3274 6.93391V34.0604C41.3274 37.7915 38.269 40.8471 34.5363 40.8471H7.39197C3.65775 40.8471 0.600098 37.7915 0.600098 34.0604V6.93391C0.600098 3.20213 3.65775 0.146484 7.39197 0.146484Z" fill="url(#paint0_linear_28_852)"/>
<path fill-rule="evenodd" clip-rule="evenodd" d="M30.4409 20.4961C30.4409 18.623 29.8851 16.7919 28.8437 15.2344C27.8023 13.677 26.3222 12.4631 24.5904 11.7463C22.8587 11.0295 20.9532 10.8419 19.1148 11.2073C17.2764 11.5728 15.5877 12.4748 14.2623 13.7993C12.9369 15.1238 12.0342 16.8113 11.6686 18.6484C11.3029 20.4856 11.4906 22.3898 12.2079 24.1204C12.9252 25.8509 14.1399 27.3301 15.6984 28.3707C17.2569 29.4114 19.0893 29.9668 20.9637 29.9668C22.2083 29.967 23.4408 29.7222 24.5907 29.2463C25.7406 28.7704 26.7854 28.0728 27.6655 27.1933C28.5456 26.3139 29.2437 25.2697 29.7199 24.1206C30.1961 22.9715 30.4411 21.7399 30.4409 20.4961ZM30.2615 9.73815C29.9598 9.73815 29.665 9.82753 29.4142 9.99499C29.1634 10.1625 28.9679 10.4005 28.8525 10.679C28.737 10.9574 28.7068 11.2639 28.7657 11.5595C28.8245 11.8551 28.9698 12.1267 29.1831 12.3398C29.3964 12.553 29.6681 12.6981 29.9639 12.7569C30.2598 12.8158 30.5664 12.7856 30.8451 12.6702C31.1238 12.5549 31.362 12.3595 31.5295 12.1089C31.6971 11.8583 31.7866 11.5636 31.7866 11.2622C31.7867 11.062 31.7473 10.8638 31.6707 10.6788C31.5941 10.4939 31.4817 10.3258 31.3401 10.1843C31.1985 10.0428 31.0303 9.93051 30.8452 9.85396C30.6601 9.7774 30.4618 9.73805 30.2615 9.73815ZM13.2164 7.54771H28.7095C30.0901 7.55106 31.4133 8.10069 32.3895 9.07638C33.3657 10.0521 33.9155 11.3744 33.9187 12.7541V28.2366C33.9169 29.6168 33.3676 30.94 32.3911 31.9161C31.4146 32.8922 30.0906 33.4416 28.7095 33.4437H13.2171C11.8362 33.4406 10.5127 32.8909 9.53635 31.9151C8.55996 30.9392 8.01013 29.6166 8.00716 28.2366V12.7549C8.0115 11.3754 8.5618 10.0536 9.53792 9.07816C10.514 8.10271 11.8367 7.55279 13.2171 7.54845L13.2164 7.54771ZM28.7095 5.81299H13.2171C9.39768 5.81299 6.27051 8.93802 6.27051 12.7549V28.2366C6.27524 30.0762 7.00864 31.8392 8.31036 33.14C9.61208 34.4408 11.3762 35.1737 13.2171 35.1785H28.7095C30.5509 35.1751 32.3159 34.4427 33.618 33.1416C34.9202 31.8405 35.6533 30.0767 35.6568 28.2366V12.7549C35.6568 8.93802 32.5364 5.81299 28.711 5.81299H28.7095ZM13.4541 20.4961C13.454 19.0117 13.8943 17.5605 14.7195 16.3262C15.5447 15.0918 16.7176 14.1298 18.09 13.5616C19.4624 12.9935 20.9725 12.8448 22.4294 13.1344C23.8864 13.4239 25.2246 14.1387 26.275 15.1884C27.3254 16.2381 28.0407 17.5754 28.3305 19.0313C28.6202 20.4873 28.4714 21.9964 27.9029 23.3678C27.3344 24.7392 26.3716 25.9114 25.1365 26.736C23.9013 27.5606 22.4491 28.0007 20.9637 28.0005C18.9722 27.9999 17.0625 27.2091 15.6543 25.8019C14.2461 24.3946 13.4547 22.4862 13.4541 20.4961Z" fill="white"/>
</g>
<defs>
<linearGradient id="paint0_linear_28_852" x1="34.6058" y1="32.8471" x2="6.75279" y2="7.59785" gradientUnits="userSpaceOnUse">
<stop stop-color="#FEC053"/>
<stop offset="0.33" stop-color="#F2203E"/>
<stop offset="0.65" stop-color="#B729A8"/>
<stop offset="1" stop-color="#5342D6"/>
</linearGradient>
<clipPath id="clip0_28_852">
<rect width="40.7273" height="40.7006" fill="white" transform="translate(0.600098 0.146484)"/>
</clipPath>
</defs>
</svg>
