<svg width="89" height="78" viewBox="0 0 89 78" fill="none" xmlns="http://www.w3.org/2000/svg">
<g id="Logo 1" clip-path="url(#clip0_37_1258)">
<g id="Layer 2">
<g id="Layer 1">
<path id="Vector" d="M66.2482 55.7608L48.2921 0L87.9963 71.4909L51.5264 64.114L40.3735 61.8359L51.5264 59.2323L60.5603 57.0626L66.2482 55.7608ZM66.2482 39.9221L72.6054 56.6286L73.7207 59.4492L70.7094 60.2086L64.5753 61.5104L79.074 65.0904L72.3823 52.6147L70.0402 48.3839L66.2482 39.9221Z" fill="white" fill-opacity="0.05"/>
<path id="Vector_2" d="M31.6741 60.5336L89.223 77.999L6.13403 69.1036L33.4586 44.0445L42.0463 36.2339L37.6967 47.082L34.4624 55.435L31.6741 60.5336ZM45.2807 69.3205L27.6591 65.0898L24.6478 64.2219L25.7631 61.6184L27.8822 55.8689L16.7293 65.8491L31.1165 67.6933H36.0238L45.2807 69.3205Z" fill="white" fill-opacity="0.05"/>
<path id="Vector_3" d="M42.604 30.8092L0 71.7077L46.9536 4.66455L57.1027 39.3794L60.114 50.2278L52.5301 41.4406L46.396 34.6061L42.604 30.8092ZM28.4398 38.2946L42.9386 22.6729L48.8496 29.7244L44.6115 15.6214L36.4699 27.1207L33.4586 30.8092L28.4398 38.2946Z" fill="white" fill-opacity="0.05"/>
</g>
</g>
</g>
<defs>
<clipPath id="clip0_37_1258">
<rect width="89" height="78" fill="white"/>
</clipPath>
</defs>
</svg>
